<svg id="Layer_1" enable-background="new 0 0 512 512" height="512" viewBox="0 0 512 512" width="512" xmlns="http://www.w3.org/2000/svg"><g><path d="m256 64.267c-105.722 0-191.733 86.011-191.733 191.733s86.011 191.733 191.733 191.733 191.733-86.011 191.733-191.733-86.011-191.733-191.733-191.733zm151.668 135.564-101.49 27.197 74.245-74.239c11.56 13.913 20.834 29.787 27.245 47.042zm-95.5-95.499c17.255 6.411 33.129 15.685 47.041 27.245l-74.233 74.227zm-112.336 0 27.192 101.472-74.233-74.227c13.912-11.56 29.785-20.834 47.041-27.245zm-68.255 48.457 74.245 74.239-101.49-27.197c6.411-17.255 15.685-33.129 27.245-47.042zm-37.31 103.211c0-9.265.794-18.348 2.298-27.192l101.471 27.192-101.471 27.192c-1.504-8.844-2.298-17.927-2.298-27.192zm10.065 56.169 101.481-27.194-74.236 74.236c-11.56-13.913-20.834-29.787-27.245-47.042zm95.5 95.499c-17.256-6.411-33.13-15.685-47.042-27.245l74.236-74.236zm56.168 10.065c-9.265 0-18.347-.794-27.191-2.298l27.191-101.471 27.191 101.471c-8.844 1.504-17.926 2.298-27.191 2.298zm-17.133-161.733c0-9.447 7.686-17.133 17.133-17.133s17.133 7.686 17.133 17.133-7.686 17.133-17.133 17.133-17.133-7.686-17.133-17.133zm17.133-57.965-27.191-101.47c8.844-1.504 17.926-2.298 27.191-2.298s18.348.794 27.191 2.298zm56.168 209.633-27.194-101.481 74.236 74.236c-13.912 11.56-29.786 20.834-47.042 27.245zm68.255-48.458-74.236-74.236 101.481 27.194c-6.411 17.256-15.685 33.13-27.245 47.042zm-66.459-103.21 101.471-27.192c1.504 8.844 2.298 17.926 2.298 27.192s-.794 18.348-2.298 27.192z"/><path d="m256 0c-141.159 0-256 114.841-256 256s114.841 256 256 256 256-114.841 256-256-114.841-256-256-256zm0 482c-124.617 0-226-101.383-226-226s101.383-226 226-226 226 101.383 226 226-101.383 226-226 226z"/></g></svg>